<?xml version="1.0" encoding="utf-8"?>
<!-- Svg Vector Icons : http://www.onlinewebfonts.com/icon -->
<!DOCTYPE svg PUBLIC "-//W3C//DTD SVG 1.1//EN" "http://www.w3.org/Graphics/SVG/1.1/DTD/svg11.dtd">
<svg version="1.1" xmlns="http://www.w3.org/2000/svg" xmlns:xlink="http://www.w3.org/1999/xlink" x="0px" y="0px" viewBox="0 0 1000 1000" enable-background="new 0 0 1000 1000" xml:space="preserve">
<metadata> Svg Vector Icons : http://www.onlinewebfonts.com/icon </metadata>
<g><path d="M109.6,109.4C7.3,217.4-12.5,385.6,33.4,523.2c57.5,173.1,261.5,277.4,436,226.7c44.3-4.6,89-46.8,124.9-48.1c90.8,90.4,180.9,181.6,272.1,271.6c45.9,40.6,125.8,0.7,123.5-59.8c0.3-47.2-45.1-72-72.5-104C843.7,735.9,770,662.2,696.3,588.5C777.7,471,786.3,306,707.9,184.8c-55.6-95.6-157.5-159.3-267-171C324.8-0.6,195.6,25.9,109.6,109.4z M190.3,190.2C281.9,94.3,446,86,546.9,171.9c102.9,80.1,129.2,238.6,58,347.8C539.2,629.9,389.1,676.4,272.5,623c-118.8-48.9-187-190.8-151-314.1C133.5,264.2,157.5,222.9,190.3,190.2z"/></g>
</svg>